HIERARCHY
ROOT root
{
 OFFSET 0.017768 1.783507 -1.776229
 CHANNELS 6 Xposition Yposition Zposition Xrotation Yrotation Zrotation
 JOINT lowerbody
 {
  OFFSET 0.000000 -1.631465 -0.004494
  CHANNELS 3 Xrotation Yrotation Zrotation
  JOINT upperbody
  {
   OFFSET 0.000000 0.000000 1.753525
   CHANNELS 3 Xrotation Yrotation Zrotation
   JOINT shoulder.L
   {
    OFFSET 0.000000 0.000000 3.259670
    CHANNELS 3 Xrotation Yrotation Zrotation
    JOINT upperarm.L
    {
     OFFSET 3.526544 0.000000 0.000000
     CHANNELS 3 Xrotation Yrotation Zrotation
     JOINT forearm.L
     {
      OFFSET 0.000000 0.000000 -1.905342
      CHANNELS 3 Xrotation Yrotation Zrotation
      JOINT hand.L
      {
       OFFSET 0.000000 0.000000 -2.171768
       CHANNELS 3 Xrotation Yrotation Zrotation
       JOINT finger3.1.L
       {
        OFFSET 0.000000 0.000000 -0.821608
        CHANNELS 3 Xrotation Yrotation Zrotation
        JOINT finger3.2.L
        {
         OFFSET 0.486683 -0.206354 -0.303690
         CHANNELS 3 Xrotation Yrotation Zrotation
         JOINT finger3.3.L
         {
          OFFSET 0.334838 0.007787 -0.198567
          CHANNELS 3 Xrotation Yrotation Zrotation
          End Site
          {
           OFFSET 0.389346 0.253075 -0.225821
          }
         }
        }
       }
       JOINT finger1.1.L
       {
        OFFSET 0.000000 0.000000 -0.821608
        CHANNELS 3 Xrotation Yrotation Zrotation
        JOINT finger1.2.L
        {
         OFFSET -0.490577 -0.196470 -0.303690
         CHANNELS 3 Xrotation Yrotation Zrotation
         JOINT finger1.3.L
         {
          OFFSET -0.342625 0.011980 -0.194673
          CHANNELS 3 Xrotation Yrotation Zrotation
          End Site
          {
           OFFSET -0.373773 0.232410 -0.229714
          }
         }
        }
       }
       JOINT finger2.1.L
       {
        OFFSET 0.000000 0.000000 -0.821608
        CHANNELS 3 Xrotation Yrotation Zrotation
        JOINT finger2.2.L
        {
         OFFSET 0.000000 -0.190780 -0.704717
         CHANNELS 3 Xrotation Yrotation Zrotation
         JOINT finger2.3.L
         {
          OFFSET 0.003893 0.101230 -0.323157
          CHANNELS 3 Xrotation Yrotation Zrotation
          End Site
          {
           OFFSET -0.003893 -0.019467 -0.365986
          }
         }
        }
       }
      }
     }
    }
   }
   JOINT shoulder.R
   {
    OFFSET 0.000000 0.000000 3.259670
    CHANNELS 3 Xrotation Yrotation Zrotation
    JOINT upperarm.R
    {
     OFFSET -3.520937 0.000000 0.000000
     CHANNELS 3 Xrotation Yrotation Zrotation
     JOINT forearm.R
     {
      OFFSET 0.000000 0.000000 -1.895009
      CHANNELS 3 Xrotation Yrotation Zrotation
      JOINT hand.R
      {
       OFFSET 0.000000 0.000000 -2.185655
       CHANNELS 3 Xrotation Yrotation Zrotation
       JOINT finger1.1.R
       {
        OFFSET 0.000000 0.000000 -0.860311
        CHANNELS 3 Xrotation Yrotation Zrotation
        JOINT finger1.2.R
        {
         OFFSET 0.481232 -0.206354 -0.261641
         CHANNELS 3 Xrotation Yrotation Zrotation
         JOINT finger1.3.R
         {
          OFFSET 0.336395 -0.003893 -0.186886
          CHANNELS 3 Xrotation Yrotation Zrotation
          End Site
          {
           OFFSET 0.378445 0.268649 -0.224263
          }
         }
        }
       }
       JOINT finger3.1.R
       {
        OFFSET 0.000000 0.000000 -0.860311
        CHANNELS 3 Xrotation Yrotation Zrotation
        JOINT finger3.2.R
        {
         OFFSET -0.509265 -0.206354 -0.256969
         CHANNELS 3 Xrotation Yrotation Zrotation
         JOINT finger3.3.R
         {
          OFFSET -0.322379 -0.003893 -0.196231
          CHANNELS 3 Xrotation Yrotation Zrotation
          End Site
          {
           OFFSET -0.383117 0.268649 -0.224263
          }
         }
        }
       }
       JOINT finger2.1.R
       {
        OFFSET 0.000000 0.000000 -0.860311
        CHANNELS 3 Xrotation Yrotation Zrotation
        JOINT finger2.2.R
        {
         OFFSET -0.009345 -0.186886 -0.672790
         CHANNELS 3 Xrotation Yrotation Zrotation
         JOINT finger2.3.R
         {
          OFFSET 0.000000 0.101230 -0.317707
          CHANNELS 3 Xrotation Yrotation Zrotation
          End Site
          {
           OFFSET 0.004672 -0.019467 -0.355084
          }
         }
        }
       }
      }
     }
    }
   }
   JOINT neck
   {
    OFFSET 0.000000 0.000000 3.259670
    CHANNELS 3 Xrotation Yrotation Zrotation
    JOINT head
    {
     OFFSET 0.000000 0.000000 1.743819
     CHANNELS 3 Xrotation Yrotation Zrotation
     JOINT eyebrow.L
     {
      OFFSET 0.180715 -1.671701 2.959368
      CHANNELS 3 Xrotation Yrotation Zrotation
      End Site
      {
       OFFSET 0.946941 0.000000 -0.043695
      }
     }
     JOINT eyebrow.R
     {
      OFFSET -0.180277 -1.671701 2.946811
      CHANNELS 3 Xrotation Yrotation Zrotation
      End Site
      {
       OFFSET -0.928215 0.000000 -0.026275
      }
     }
     JOINT lowerlip
     {
      OFFSET 0.000000 -0.002601 2.073333
      CHANNELS 3 Xrotation Yrotation Zrotation
      End Site
      {
       OFFSET 0.000000 -1.598006 -1.295259
      }
     }
     JOINT upperlip
     {
      OFFSET 0.000000 -0.002601 2.073333
      CHANNELS 3 Xrotation Yrotation Zrotation
      End Site
      {
       OFFSET 0.000000 -1.757182 -0.664795
      }
     }
    }
   }
  }
  JOINT upperleg.L
  {
   OFFSET 0.978163 0.000000 -0.686246
   CHANNELS 3 Xrotation Yrotation Zrotation
   JOINT lowerleg.L
   {
    OFFSET -0.009344 0.000000 -2.179841
    CHANNELS 3 Xrotation Yrotation Zrotation
    JOINT foot.L
    {
     OFFSET 0.000000 0.000000 -3.724912
     CHANNELS 3 Xrotation Yrotation Zrotation
     JOINT toe1.1.L
     {
      OFFSET 0.000000 -1.244663 0.000000
      CHANNELS 3 Xrotation Yrotation Zrotation
      JOINT toe1.2.L
      {
       OFFSET -0.352061 -0.378278 0.121723
       CHANNELS 3 Xrotation Yrotation Zrotation
       JOINT toe1.3.L
       {
        OFFSET -0.247192 -0.295881 -0.074906
        CHANNELS 3 Xrotation Yrotation Zrotation
        End Site
        {
         OFFSET -0.277154 -0.292136 -0.293385
        }
       }
      }
     }
     JOINT toe2.1.L
     {
      OFFSET 0.000000 -1.244663 0.000000
      CHANNELS 3 Xrotation Yrotation Zrotation
      JOINT toe2.2.L
      {
       OFFSET 0.007491 -0.591762 0.131086
       CHANNELS 3 Xrotation Yrotation Zrotation
       JOINT toe2.3.L
       {
        OFFSET 0.000000 -0.277154 -0.049937
        CHANNELS 3 Xrotation Yrotation Zrotation
        End Site
        {
         OFFSET -0.003745 -0.385769 -0.315232
        }
       }
      }
     }
     JOINT toe3.1.L
     {
      OFFSET 0.000000 -1.244663 0.000000
      CHANNELS 3 Xrotation Yrotation Zrotation
      JOINT toe3.2.L
      {
       OFFSET 0.359551 -0.397005 0.121723
       CHANNELS 3 Xrotation Yrotation Zrotation
       JOINT toe3.3.L
       {
        OFFSET 0.220974 -0.303371 -0.074906
        CHANNELS 3 Xrotation Yrotation Zrotation
        End Site
        {
         OFFSET 0.250937 -0.318353 -0.293385
        }
       }
      }
     }
    }
   }
  }
  JOINT upperleg.R
  {
   OFFSET -0.957306 0.000000 -0.665170
   CHANNELS 3 Xrotation Yrotation Zrotation
   JOINT lowerleg.R
   {
    OFFSET -0.012783 0.000000 -2.192843
    CHANNELS 3 Xrotation Yrotation Zrotation
    JOINT foot.R
    {
     OFFSET 0.000000 0.006728 -3.699487
     CHANNELS 3 Xrotation Yrotation Zrotation
     JOINT toe1.1.R
     {
      OFFSET 0.000000 -1.244663 -0.020184
      CHANNELS 3 Xrotation Yrotation Zrotation
      JOINT toe1.2.R
      {
       OFFSET 0.363297 -0.382023 0.121723
       CHANNELS 3 Xrotation Yrotation Zrotation
       JOINT toe1.3.R
       {
        OFFSET 0.243446 -0.284645 -0.074906
        CHANNELS 3 Xrotation Yrotation Zrotation
        End Site
        {
         OFFSET 0.284645 -0.303372 -0.293385
        }
       }
      }
     }
     JOINT toe2.1.R
     {
      OFFSET 0.000000 -1.244663 -0.020184
      CHANNELS 3 Xrotation Yrotation Zrotation
      JOINT toe2.2.R
      {
       OFFSET -0.003745 -0.591762 0.131086
       CHANNELS 3 Xrotation Yrotation Zrotation
       JOINT toe2.3.R
       {
        OFFSET 0.000000 -0.288390 -0.049937
        CHANNELS 3 Xrotation Yrotation Zrotation
        End Site
        {
         OFFSET -0.003745 -0.382023 -0.315232
        }
       }
      }
     }
     JOINT toe3.1.R
     {
      OFFSET 0.000000 -1.244663 -0.020184
      CHANNELS 3 Xrotation Yrotation Zrotation
      JOINT toe3.2.R
      {
       OFFSET -0.355806 -0.404495 0.121723
       CHANNELS 3 Xrotation Yrotation Zrotation
       JOINT toe3.3.R
       {
        OFFSET -0.220974 -0.303371 -0.074906
        CHANNELS 3 Xrotation Yrotation Zrotation
        End Site
        {
         OFFSET -0.265918 -0.325844 -0.293385
        }
       }
      }
     }
    }
   }
  }
 }
}
MOTION
Frames: 9
Frame Time: 0.041667
-0.5993 1.7835 -1.7762 0 0 0 0 -3.4166 0 0.032 6.8456 4.6111 0 0 0 0 -19.2718 0 -59.5118 0 0 -8.6761 23.0933 21.2582 3.8529 11.6242 -2.6299 0 0 0 0 0 0 7.2851 -21.2065 5.267 0 0 0 0 0 0 0 0 0 0 0 0 0 0 0 0 0 0 22.1563 -0.9099 0.1857 -61.1141 0 0 -21.9674 0 0 7.6085 19.8462 -4.997 0 0 0 0 0 0 7.699 -20.5962 4.8443 0 0 0 0 0 0 0 0 0 0 0 0 0 0 0 0 0 0 -0.1271 -1.5842 -14.1295 -0.0017 4.3213 -0.1992 0 0 0 0 0 0 0 0 0 0.0138 -1.3654 0.0001 0 0 0 3.4288 7.0756 -0.1711 0 0 0 0 0 0 0 0 0 0 0 0 0 0 0 0 0 0 0 0 0 0 0 0 0 0 0 -11.5364 3.104 0.7859 18.6104 -0.006 -0.0372 -5.7206 0.0298 0.0303 0 0 0 0 0 0 0 0 0 0 0 0 0 0 0 0 0 0 0 0 0 0 0 0 0 0 0
-0.5936 1.7296 -1.7762 0 0 0 0 -3.3671 0 -0.3277 6.76 4.5642 0 0 0 0.1666 -19.1287 0.028 -59.5234 0 0 -8.7438 22.9136 21.1165 3.8767 11.6897 -2.6474 0 0 0 0 0 0 7.2817 -21.1985 5.2643 0 0 0 0 0 0 0 0 0 0 0 0 0 0 0 0 0 0 21.9985 -0.7672 0.1567 -61.1025 0 0 -21.8446 -0.1452 -0.1679 7.6121 19.854 -4.9997 0 0 0 0 0 0 7.6701 -20.5318 4.8234 0 0 0 0 0 0 0 0 0 0 0 0 0 0 0 0 0 0 0.4187 -1.6278 -13.9153 0.0003 5.4336 -0.2507 -0.0006 -1.8142 0.0513 0.4938 0 0 -0.4056 0 0 0.0114 -1.3792 -0.0043 0.1343 0 0.0003 3.2274 7.0258 -0.1549 0 0 0 0 0 0 0 0 0 0 0 0 0 0 0 0 0 0 0 0 0 0 0 0 0 0 0 -11.3535 3.0925 0.7781 18.4761 -0.0059 -0.037 -5.7206 -0.0216 0.027 0 0 0 0 0 0 0 0 0 0 0 0 0 0 0 0 0 0 0 0 0 0 0 0 0 0 0
-0.5775 1.6745 -1.7762 0 0 0 0 -3.2254 0 -0.6945 6.5421 4.3896 0 0 0 0.6428 -18.7181 0.1057 -59.5566 0 0 -8.9401 22.3995 20.7104 3.945 11.877 -2.6976 0 0 0 0 0 0 7.2722 -21.1759 5.2567 0 0 0 0 0 0 0 0 0 0 0 0 0 0 0 0 0 0 21.5468 -0.358 0.0755 -61.0692 0 0 -21.4948 -0.5633 -0.6475 7.6224 19.8764 -5.0073 0 0 0 0 0 0 7.5879 -20.3475 4.7637 0 0 0 0 0 0 0 0 0 0 0 0 0 0 0 0 0 0 0.9983 -1.6269 -13.3162 0.003 6.4291 -0.2968 0.0004 -3.6625 0.1037 0.9637 0 0 -0.7804 0 0 -0.0054 -1.4187 -0.0169 0.519 0 0.0011 2.6734 6.8817 -0.1158 0 0 0 0 0 0 0 0 0 0 0 0 0 0 0 0 0 0 0 0 0 0 0 0 0 0 0 -10.8453 3.0594 0.7562 18.0914 -0.0057 -0.0362 -5.7196 -0.1687 0.0175 0 0 0 0 0 0 0 0 0 0 0 0 0 0 0 0 0 0 0 0 0 0 0 0 0 0 0
-0.5523 1.6201 -1.7762 0 0 0 0 -3.0017 0 -1.0573 6.2082 4.0999 0 0 0 1.3921 -18.0677 0.2209 -59.6091 0 0 -9.2573 21.5887 20.067 4.0533 12.1726 -2.7773 0 0 0 0 0 0 7.2572 -21.1401 5.2446 0 0 0 0 0 0 0 0 0 0 0 0 0 0 0 0 0 0 20.8337 0.2901 -0.0462 -61.0168 0 0 -20.9484 -1.2307 -1.4012 7.6386 19.9117 -5.0194 0 0 0 0 0 0 7.4586 -20.0563 4.6701 0 0 0 0 0 0 0 0 0 0 0 0 0 0 0 0 0 0 1.5919 -1.5782 -12.3754 0.006 7.3082 -0.3377 0.0031 -5.4924 0.1557 1.403 0 0 -1.1218 0 0 -0.051 -1.481 -0.0365 1.1265 0 0.0023 1.843 6.6529 -0.0607 0 0 0 0 0 0 0 0 0 0 0 0 0 0 0 0 0 0 0 0 0 0 0 0 0 0 0 -10.0729 3.0066 0.7225 17.4839 -0.0053 -0.0351 -5.7161 -0.401 0.0027 0 0 0 0 0 0 0 0 0 0 0 0 0 0 0 0 0 0 0 0 0 0 0 0 0 0 0
-0.5196 1.5677 -1.7762 0 0 0 0 -2.7062 0 -1.4055 5.7742 3.7079 0 0 0 2.3776 -17.2049 0.3589 -59.6784 0 0 -9.6897 20.5198 19.2126 4.1972 12.5629 -2.8837 0 0 0 0 0 0 7.2373 -21.0928 5.2287 0 0 0 0 0 0 0 0 0 0 0 0 0 0 0 0 0 0 19.8919 1.1502 -0.1949 -60.9475 0 0 -20.238 -2.1258 -2.3902 7.66 19.9583 -5.0354 0 0 0 0 0 0 7.2891 -19.6714 4.5479 0 0 0 0 0 0 0 0 0 0 0 0 0 0 0 0 0 0 2.1784 -1.4796 -11.1357 0.0091 8.0708 -0.3733 0.0072 -7.2513 0.2059 1.8052 0 0 -1.4267 0 0 -0.1398 -1.5634 -0.0621 1.9294 0 0.0039 0.8122 6.3491 0.0024 0 0 0 0 0 0 0 0 0 0 0 0 0 0 0 0 0 0 0 0 0 0 0 0 0 0 0 -9.0971 2.9359 0.6794 16.681 -0.0048 -0.0335 -5.7088 -0.7079 -0.0164 0 0 0 0 0 0 0 0 0 0 0 0 0 0 0 0 0 0 0 0 0 0 0 0 0 0 0
-0.4809 1.519 -1.7762 0 0 0 0 -2.3493 0 -1.7286 5.2557 3.2272 0 0 0 3.5623 -16.157 0.5046 -59.7621 0 0 -10.2328 19.232 18.1728 4.3723 13.0342 -3.0138 0 0 0 0 0 0 7.2133 -21.0357 5.2096 0 0 0 0 0 0 0 0 0 0 0 0 0 0 0 0 0 0 18.7537 2.195 -0.3561 -60.8637 0 0 -19.3967 -3.2272 -3.5752 7.6858 20.0146 -5.0547 0 0 0 0 0 0 7.0858 -19.2058 4.4022 0 0 0 0 0 0 0 0 0 0 0 0 0 0 0 0 0 0 2.7361 -1.3308 -9.6403 0.0122 8.717 -0.4035 0.0125 -8.886 0.2529 2.1637 0 0 -1.6925 0 0 -0.2862 -1.6629 -0.0927 2.9005 0.0001 0.0059 -0.3427 5.9804 0.0661 0 0 0 0 0 0 0 0 0 0 0 0 0 0 0 0 0 0 0 0 0 0 0 0 0 0 0 -7.979 2.8492 0.6294 15.7099 -0.0043 -0.0316 -5.6962 -1.079 -0.0388 0 0 0 0 0 0 0 0 0 0 0 0 0 0 0 0 0 0 0 0 0 0 0 0 0 0 0
-0.4375 1.4757 -1.7762 0 0 0 0 -1.941 0 -2.0162 4.6679 2.6715 0 0 0 4.9099 -14.9523 0.6431 -59.8579 0 0 -10.8812 17.7657 16.9733 4.5744 13.5727 -3.1647 0 0 0 0 0 0 7.186 -20.9703 5.1877 0 0 0 0 0 0 0 0 0 0 0 0 0 0 0 0 0 0 17.451 3.3965 -0.5155 -60.768 0 0 -18.4582 -4.5123 -4.9172 7.7155 20.079 -5.0769 0 0 0 0 0 0 6.8556 -18.6727 4.2381 0 0 0 0 0 0 0 0 0 0 0 0 0 0 0 0 0 0 3.2423 -1.1337 -7.9327 0.0149 9.2466 -0.4284 0.0184 -10.343 0.2951 2.4718 0 0 -1.9163 0 0 -0.5046 -1.7767 -0.1274 4.012 0.0003 0.0082 -1.5454 5.5571 0.1237 0 0 0 0 0 0 0 0 0 0 0 0 0 0 0 0 0 0 0 0 0 0 0 0 0 0 0 -6.7802 2.7486 0.5749 14.5984 -0.0037 -0.0294 -5.6768 -1.5035 -0.0636 0 0 0 0 0 0 0 0 0 0 0 0 0 0 0 0 0 0 0 0 0 0 0 0 0 0 0
-0.3909 1.4392 -1.7762 0 0 0 0 -1.4917 0 -2.2574 4.0255 2.0551 0 0 0 6.3846 -13.6201 0.7611 -59.9632 0 0 -11.6284 16.1619 15.6395 4.799 14.165 -3.3335 0 0 0 0 0 0 7.1559 -20.8984 5.1637 0 0 0 0 0 0 0 0 0 0 0 0 0 0 0 0 0 0 16.0156 4.7258 -0.6597 -60.6626 0 0 -17.4551 -5.9562 -6.3775 7.7481 20.1499 -5.1013 0 0 0 0 0 0 6.6048 -18.0851 4.0608 0 0 0 0 0 0 0 0 0 0 0 0 0 0 0 0 0 0 3.6742 -0.8928 -6.0565 0.0172 9.6592 -0.4478 0.0242 -11.5691 0.3309 2.7229 0 0 -2.0953 0 0 -0.8095 -1.9018 -0.1656 5.2362 0.0005 0.0106 -2.7197 5.0901 0.1699 0 0 0 0 0 0 0 0 0 0 0 0 0 0 0 0 0 0 0 0 0 0 0 0 0 0 0 -5.5622 2.6363 0.518 13.3742 -0.0031 -0.027 -5.6493 -1.9708 -0.0898 0 0 0 0 0 0 0 0 0 0 0 0 0 0 0 0 0 0 0 0 0 0 0 0 0 0 0
-0.3426 1.4111 -1.7762 0 0 0 0 -1.0116 0 -2.4411 3.3428 1.393 0 0 0 7.9517 -12.1912 0.8479 -60.0758 0 0 -12.4652 14.4626 14.1978 5.0418 14.7971 -3.517 0 0 0 0 0 0 7.1239 -20.8216 5.138 0 0 0 0 0 0 0 0 0 0 0 0 0 0 0 0 0 0 14.4791 6.1524 -0.7774 -60.5501 0 0 -16.4185 -7.5308 -7.9185 7.7831 20.2256 -5.1274 0 0 0 0 0 0 6.3399 -17.4564 3.8748 0 0 0 0 0 0 0 0 0 0 0 0 0 0 0 0 0 0 4.0093 -0.6154 -4.0559 0.019 9.9544 -0.4617 0.0293 -12.511 0.3586 2.9105 0 0 -2.2267 0 0 -1.2155 -2.0353 -0.2063 6.5453 0.0008 0.0133 -3.7895 4.5906 0.2011 0 0 0 0 0 0 0 0 0 0 0 0 0 0 0 0 0 0 0 0 0 0 0 0 0 0 0 -4.3869 2.5147 0.4605 12.0651 -0.0025 -0.0244 -5.6121 -2.4703 -0.1163 0 0 0 0 0 0 0 0 0 0 0 0 0 0 0 0 0 0 0 0 0 0 0 0 0 0 0
